<svg xmlns="http://www.w3.org/2000/svg" width="188.18" height="35" viewBox="0 0 188.18 35"><rect class="svg__rect" x="0" y="0" width="67.11" height="35" fill="#C1D72F"/><rect class="svg__rect" x="65.11" y="0" width="123.07000000000001" height="35" fill="#005384"/><path class="svg__text" d="M16.26 18.86L13.39 13.47L15.04 13.47L17.00 17.51L18.96 13.47L20.60 13.47L17.74 18.86L17.74 22L16.26 22L16.26 18.86ZM25.30 22L23.76 22L26.98 13.47L28.31 13.47L31.54 22L29.99 22L29.29 20.01L25.99 20.01L25.30 22ZM27.64 15.28L26.40 18.82L28.88 18.82L27.64 15.28ZM35.06 19.42L35.06 19.42L36.54 19.42Q36.54 20.15 37.02 20.55Q37.50 20.95 38.40 20.95L38.40 20.95Q39.17 20.95 39.56 20.63Q39.95 20.32 39.95 19.80L39.95 19.80Q39.95 19.24 39.56 18.94Q39.16 18.63 38.13 18.32Q37.10 18.01 36.49 17.63L36.49 17.63Q35.32 16.90 35.32 15.72L35.32 15.72Q35.32 14.69 36.16 14.02Q37.00 13.35 38.35 13.35L38.35 13.35Q39.24 13.35 39.93 13.68Q40.63 14.01 41.03 14.61Q41.43 15.22 41.43 15.96L41.43 15.96L39.95 15.96Q39.95 15.29 39.53 14.91Q39.11 14.54 38.33 14.54L38.33 14.54Q37.61 14.54 37.21 14.85Q36.81 15.16 36.81 15.71L36.81 15.71Q36.81 16.18 37.24 16.50Q37.67 16.81 38.67 17.10Q39.66 17.40 40.27 17.78Q40.87 18.16 41.15 18.65Q41.43 19.13 41.43 19.79L41.43 19.79Q41.43 20.86 40.62 21.49Q39.80 22.12 38.40 22.12L38.40 22.12Q37.47 22.12 36.70 21.77Q35.92 21.43 35.49 20.83Q35.06 20.22 35.06 19.42ZM47.21 22L45.72 22L45.72 13.47L47.21 13.47L47.21 17.02L51.02 17.02L51.02 13.47L52.50 13.47L52.50 22L51.02 22L51.02 18.21L47.21 18.21L47.21 22Z" fill="#005384"/><path class="svg__text" d="M81.63 22L79.30 22L79.30 13.60L81.25 13.60L84.96 18.07L84.96 13.60L87.29 13.60L87.29 22L85.34 22L81.63 17.52L81.63 22ZM93.87 22L91.44 22L95.15 13.60L97.50 13.60L101.21 22L98.75 22L98.08 20.37L94.53 20.37L93.87 22ZM96.31 15.93L95.22 18.61L97.39 18.61L96.31 15.93ZM107.75 22L105.37 22L105.37 13.60L109.21 13.60Q110.35 13.60 111.19 13.98Q112.03 14.35 112.49 15.06Q112.94 15.76 112.94 16.71L112.94 16.71Q112.94 17.62 112.51 18.30Q112.09 18.98 111.30 19.36L111.30 19.36L113.11 22L110.56 22L109.04 19.77L107.75 19.77L107.75 22ZM107.75 15.47L107.75 17.93L109.06 17.93Q109.80 17.93 110.17 17.61Q110.54 17.29 110.54 16.71L110.54 16.71Q110.54 16.12 110.17 15.79Q109.80 15.47 109.06 15.47L109.06 15.47L107.75 15.47ZM119.15 22L116.72 22L120.43 13.60L122.77 13.60L126.49 22L124.02 22L123.36 20.37L119.81 20.37L119.15 22ZM121.58 15.93L120.50 18.61L122.66 18.61L121.58 15.93ZM133.23 22L129.64 13.60L132.21 13.60L134.49 19.07L136.81 13.60L139.16 13.60L135.57 22L133.23 22ZM144.74 22L142.31 22L146.02 13.60L148.36 13.60L152.08 22L149.61 22L148.95 20.37L145.40 20.37L144.74 22ZM147.17 15.93L146.09 18.61L148.25 18.61L147.17 15.93ZM160.20 22L156.23 22L156.23 13.60L160.20 13.60Q161.59 13.60 162.65 14.12Q163.72 14.63 164.31 15.58Q164.90 16.53 164.90 17.80L164.90 17.80Q164.90 19.07 164.31 20.02Q163.72 20.97 162.65 21.48Q161.59 22 160.20 22L160.20 22ZM158.61 15.50L158.61 20.10L160.11 20.10Q161.19 20.10 161.84 19.49Q162.50 18.88 162.50 17.80L162.50 17.80Q162.50 16.72 161.84 16.11Q161.19 15.50 160.11 15.50L160.11 15.50L158.61 15.50ZM176.37 22L169.63 22L169.63 13.60L176.22 13.60L176.22 15.44L171.98 15.44L171.98 16.85L175.71 16.85L175.71 18.63L171.98 18.63L171.98 20.17L176.37 20.17L176.37 22Z" fill="#C1D72F" x="78.11"/></svg>